<?xml version="1.0" encoding="UTF-8" standalone="no"?>
<!-- Created with Inkscape (http://www.inkscape.org/) -->

<svg
   xmlns:dc="http://purl.org/dc/elements/1.1/"
   xmlns:cc="http://creativecommons.org/ns#"
   xmlns:rdf="http://www.w3.org/1999/02/22-rdf-syntax-ns#"
   xmlns:svg="http://www.w3.org/2000/svg"
   xmlns="http://www.w3.org/2000/svg"
   xmlns:sodipodi="http://sodipodi.sourceforge.net/DTD/sodipodi-0.dtd"
   xmlns:inkscape="http://www.inkscape.org/namespaces/inkscape"
   width="160pt"
   height="160pt"
   viewBox="0 0 200.00001 200"
   id="svg2"
   version="1.1"
   inkscape:version="0.91 r13725"
   sodipodi:docname="Stopwatch.svg">
  <defs
     id="defs4" />
  <sodipodi:namedview
     id="base"
     pagecolor="#ffffff"
     bordercolor="#666666"
     borderopacity="1.0"
     inkscape:pageopacity="0.0"
     inkscape:pageshadow="2"
     inkscape:zoom="2.2273864"
     inkscape:cx="126.03115"
     inkscape:cy="107.75837"
     inkscape:document-units="pt"
     inkscape:current-layer="layer1"
     showgrid="true"
     units="pt"
     inkscape:showpageshadow="true"
     inkscape:object-nodes="true"
     inkscape:snap-smooth-nodes="true"
     inkscape:window-width="1831"
     inkscape:window-height="1335"
     inkscape:window-x="435"
     inkscape:window-y="0"
     inkscape:window-maximized="0"
     inkscape:snap-center="true">
    <inkscape:grid
       type="xygrid"
       id="grid4136"
       dotted="true"
       spacingx="10"
       spacingy="10"
       units="pt" />
  </sodipodi:namedview>
  <metadata
     id="metadata7">
    <rdf:RDF>
      <cc:Work
         rdf:about="">
        <dc:format>image/svg+xml</dc:format>
        <dc:type
           rdf:resource="http://purl.org/dc/dcmitype/StillImage" />
        <dc:title></dc:title>
      </cc:Work>
    </rdf:RDF>
  </metadata>
  <g
     inkscape:label="Layer 1"
     inkscape:groupmode="layer"
     id="layer1"
     transform="translate(0,-852.36232)"
     style="display:inline">
    <rect
       style="fill:#c42bce;fill-opacity:1;stroke:none;stroke-width:1.25;stroke-linejoin:miter;stroke-miterlimit:4;stroke-dasharray:none;stroke-opacity:1"
       id="rect4179"
       width="199.99998"
       height="200"
       x="0"
       y="852.3623" />
    <path
       inkscape:connector-curvature="0"
       style="fill:#ffffff;fill-opacity:1;stroke:none;stroke-width:1.25000012;stroke-linejoin:miter;stroke-miterlimit:4;stroke-dasharray:none;stroke-opacity:1"
       d="m 85,872.36231 a 4.9999983,4.9999988 0 0 0 -5,5 4.9999983,4.9999988 0 0 0 5,5 l 5,0 0,20.42383 a 129.99998,129.99998 0 0 0 -120,129.57616 129.99998,129.99998 0 0 0 130,130 129.99998,129.99998 0 0 0 130,-130 129.99998,129.99998 0 0 0 -120,-129.49804 l 0,-20.50195 5,0 a 4.9999983,4.9999988 0 0 0 5,-5 4.9999983,4.9999988 0 0 0 -5,-5 l -30,0 z m 15,40 a 119.99999,119.99999 0 0 1 120,119.99999 119.99999,119.99999 0 0 1 -120,120 119.99999,119.99999 0 0 1 -120,-120 119.99999,119.99999 0 0 1 120,-119.99999 z"
       id="path4142" />
    <path
       inkscape:connector-curvature="0"
       style="fill:#ffffff;fill-opacity:1;fill-rule:evenodd;stroke:none;stroke-width:1.25000012;stroke-linecap:butt;stroke-linejoin:miter;stroke-miterlimit:4;stroke-dasharray:none;stroke-opacity:1"
       d="m 150,934.38272 -48.70973,88.07348 a 9.9999988,9.9999979 0 0 0 -10.197496,5.3606 9.9999988,9.9999979 0 0 0 1.198781,10.911 l -14.926978,26.9907 8.907235,4.5455 13.101244,-27.9332 a 9.9999988,9.9999979 0 0 0 9.534184,-5.4231 9.9999988,9.9999979 0 0 0 -1.64371,-11.4011 L 150,934.38272 Z m -47.72726,93.52598 a 4.9999997,4.9999992 0 0 1 2.18088,6.7263 4.9999997,4.9999992 0 0 1 -6.726338,2.1809 4.9999997,4.9999992 0 0 1 -2.18089,-6.7263 4.9999997,4.9999992 0 0 1 6.726348,-2.1809 z"
       id="path4163"
       inkscape:transform-center-y="-30.038963"
       inkscape:transform-center-x="-13.682288" />
  </g>
</svg>
